{"title":"Tanu Weds Manu Returns (2015) RK Pre DvD Rip - XviD - [1CD] - Te","uid":11960117,"size":738242314,"categoryP":"video","categoryS":"other","magnet":"?xt=urn:btih:5116425c2417c68beedd7201808fed15887bd1c6&amp;dn=Tanu+Weds+Manu+Returns+%282015%29+RK+Pre+DvD+Rip+-+XviD+-+%5B1CD%5D+-+Te&amp;tr=udp%3A%2F%2Ftracker.openbittorrent.com%3A80&amp;tr=udp%3A%2F%2Fopen.demonii.com%3A1337&amp;tr=udp%3A%2F%2Ftracker.coppersurfer.tk%3A6969&amp;tr=udp%3A%2F%2Fexodus.desync.com%3A6969","seeders":7,"leechers":1,"uploader":"SS132203","files":3,"time":1432541511,"description":"Tanu Weds Manu Returns (2015) RK Pre DvD Rip - XviD - [1CD] - Team IcTv Exclusive\n &lt;a href=&quot;\nhttp://imgsparrow.co/image/47&quot; rel=&quot;nofollow&quot; target=&quot;_NEW&quot;&gt;\nhttp://imgsparrow.co/image/47&lt;/a&gt;\n &lt;a href=&quot;\nhttp://imgsparrow.co/image/bI&quot; rel=&quot;nofollow&quot; target=&quot;_NEW&quot;&gt;\nhttp://imgsparrow.co/image/bI&lt;/a&gt;\n\nInfo : - \n\nAll Credit Goes To Intellect Clever &amp; IcTv\nSample Within Torrent[/color]\n\nMovie Info\nBanner : Eros International\nYear : 2015\nCast : R Madhavan and Kangana Ranaut\nVideo: XviD\nAudio : MP3\nGenre : Comedy, Romance\nSubtitles :Nope\nResolution : 640 x 272\nRuntime : 2hr 9min xx\nSource : Team IcTv\n\nFormat                      : AVI\nFormat/Info                 : Audio Video Interleave\nFile size                   : 691 MiB\nDuration                    : 2h 9mn\nOverall bit rate            : 745 Kbps\n\nVideo\nID                          : 0\nFormat                      : MPEG-4 Visual\nFormat profile              : Advanced Simple@L5\nFormat settings, BVOP       : 2\nFormat settings, QPel       : No\nFormat settings, GMC        : No warppoints\nFormat settings, Matrix     : Default (H.263)\nCodec ID                    : XVID\nCodec ID/Hint               : XviD\nDuration                    : 2h 9mn\nBit rate                    : 609 Kbps\nWidth                       : 640 pixels\nHeight                      : 272 pixels\nDisplay aspect ratio        : 2.35:1\nFrame rate                  : 29.970 fps\nColor space                 : YUV\nChroma subsampling          : 4:2:0\nBit depth                   : 8 bits\nScan type                   : Progressive\nCompression mode            : Lossy\nBits/(Pixel*Frame)          : 0.117\nStream size                 : 566 MiB (82%)\nWriting library             : XviD 1.2.1 (UTC 2008-12-04)\n\nAudio\nID                          : 1\nFormat                      : MPEG Audio\nFormat version              : Version 1\nFormat profile              : Layer 3\nMode                        : Joint stereo\nMode extension              : MS Stereo\nCodec ID                    : 55\nCodec ID/Hint               : MP3\nDuration                    : 2h 9mn\nBit rate mode               : Constant\nBit rate                    : 128 Kbps\nChannel(s)                  : 2 channels\nSampling rate               : 48.0 KHz\nCompression mode            : Lossy\nStream size                 : 119 MiB (17%)\n\nScreens : - \n &lt;a href=&quot;\nhttp://imgsparrow.co/image/j1&quot; rel=&quot;nofollow&quot; target=&quot;_NEW&quot;&gt;\nhttp://imgsparrow.co/image/j1&lt;/a&gt; &lt;a href=&quot;\nhttp://imgsparrow.co/image/r6&quot; rel=&quot;nofollow&quot; target=&quot;_NEW&quot;&gt;\nhttp://imgsparrow.co/image/r6&lt;/a&gt; &lt;a href=&quot;\nhttp://imgsparrow.co/image/r8&quot; rel=&quot;nofollow&quot; target=&quot;_NEW&quot;&gt;\nhttp://imgsparrow.co/image/r8&lt;/a&gt; &lt;a href=&quot;\nhttp://imgsparrow.co/image/r9&quot; rel=&quot;nofollow&quot; target=&quot;_NEW&quot;&gt;\nhttp://imgsparrow.co/image/r9&lt;/a&gt; &lt;a href=&quot;\nhttp://imgsparrow.co/image/rL&quot; rel=&quot;nofollow&quot; target=&quot;_NEW&quot;&gt;\nhttp://imgsparrow.co/image/rL&lt;/a&gt; &lt;a href=&quot;\nhttp://imgsparrow.co/image/rN&quot; rel=&quot;nofollow&quot; target=&quot;_NEW&quot;&gt;\nhttp://imgsparrow.co/image/rN&lt;/a&gt; &lt;a href=&quot;\nhttp://imgsparrow.co/image/rt&quot; rel=&quot;nofollow&quot; target=&quot;_NEW&quot;&gt;\nhttp://imgsparrow.co/image/rt&lt;/a&gt; &lt;a href=&quot;\nhttp://imgsparrow.co/image/rE&quot; rel=&quot;nofollow&quot; target=&quot;_NEW&quot;&gt;\nhttp://imgsparrow.co/image/rE&lt;/a&gt; &lt;a href=&quot;\nhttp://imgsparrow.co/image/rJ&quot; rel=&quot;nofollow&quot; target=&quot;_NEW&quot;&gt;\nhttp://imgsparrow.co/image/rJ&lt;/a&gt; &lt;a href=&quot;\nhttp://imgsparrow.co/image/rU&quot; rel=&quot;nofollow&quot; target=&quot;_NEW&quot;&gt;\nhttp://imgsparrow.co/image/rU&lt;/a&gt;\n &lt;a href=&quot;\nhttp://imgsparrow.co/image/N2&quot; rel=&quot;nofollow&quot; target=&quot;_NEW&quot;&gt;\nhttp://imgsparrow.co/image/N2&lt;/a&gt;","torrent":{"xt":"urn:btih:5116425c2417c68beedd7201808fed15887bd1c6","amp;dn":"Tanu+Weds+Manu+Returns+%282015%29+RK+Pre+DvD+Rip+-+XviD+-+%5B1CD%5D+-+Te","amp;tr":["udp%3A%2F%2Ftracker.openbittorrent.com%3A80","udp%3A%2F%2Fopen.demonii.com%3A1337","udp%3A%2F%2Ftracker.coppersurfer.tk%3A6969","udp%3A%2F%2Fexodus.desync.com%3A6969"],"infoHash":"5116425c2417c68beedd7201808fed15887bd1c6","infoHashBuffer":{"type":"Buffer","data":[81,22,66,92,36,23,198,139,238,221,114,1,128,143,237,21,136,123,209,198]},"announce":[],"urlList":[]}}